<?xml version="1.0" encoding="utf-8"?>
<!-- Generator: Adobe Illustrator 24.3.1, SVG Export Plug-In . SVG Version: 6.00 Build 0)  -->
<svg version="1.1" id="SGH" xmlns="http://www.w3.org/2000/svg" xmlns:xlink="http://www.w3.org/1999/xlink" x="0px" y="0px"
	 viewBox="0 0 786.3959961 249.598175" enable-background="new 0 0 786.3959961 249.598175" xml:space="preserve">
<path id="SGH_1_" fill="#00A4A8" d="M18.1712341,195.7706604c25.1404572,13.4878845,52.227829,20.2297516,81.257988,20.2297516
	c20.1140137,0,35.5405502-3.3110046,46.2837296-9.9412689c10.7431946-6.6302643,16.1168518-15.65802,16.1168518-27.0873718
	c0-19.2005005-18.9731598-31.3160248-56.9153137-36.3424683l-13.3721466-1.7154388
	c-31.084549-3.8855591-53.8275261-11.5988312-68.2289276-23.139801S1.7154372,90.401474,1.7154372,70.2874527
	c0-13.7152252,4.112916-25.8844986,12.3428812-36.5160751c8.225831-10.6274433,19.8825378-18.9111443,34.9701157-24.855238
	S81.6010742,0,101.4877472,0c16.228447,0,32.0559387,2.0006545,47.4824677,6.0019636s29.199646,9.4287043,41.3151703,16.2821846
	c2.0585327,0.9176559,3.0877838,2.5173531,3.0877838,4.8032246c0,0.6861744-0.2314758,1.7113037-0.6861725,3.0836525
	l-9.2592163,19.8866711c-0.9135284,2.2858734-2.3974915,3.4267426-4.4560089,3.4267426
	c-0.9176483,0-2.0585175-0.3430901-3.4267426-1.0292625c-21.7178497-12.5702286-46.4036102-18.8574104-74.0572815-18.8574104
	c-19.6593246,0-34.742775,3.315136-45.2586098,9.9454041s-15.769619,15.5422745-15.769619,26.7442818
	c0,8.6846619,4.3402596,15.9969711,13.0290527,21.9410629c8.6846619,5.9440994,23.0860672,10.1727524,43.2000809,12.6859741
	l13.3680115,1.7154312c32.2295456,4.1170502,55.3734818,11.7724457,69.4318008,22.9703293
	c14.054184,11.2020111,21.0854187,27.6578064,21.0854187,49.371521c0,13.9425812-4.0013123,26.2275848-11.9998016,36.8550262
	c-8.0026093,10.6315765-19.6014557,18.9152832-34.8006287,24.859375
	c-15.2033234,5.9399567-33.3166885,8.9120026-54.3442307,8.9120026c-17.6007996,0-34.8585129-2.116394-51.7731361-6.3409119
	c-16.9146252-4.228653-31.7707253-9.9991455-44.5682983-17.3155823C1.0292623,224.8008118,0,223.2011108,0,221.1425934
	c0-0.6861725,0.2273471-1.7154388,0.6861749-3.0877838l9.602314-19.8825378
	c0.9093885-2.2858734,2.3974791-3.4308777,4.4560032-3.4308777
	C15.6580153,194.741394,16.7988834,195.0844727,18.1712341,195.7706604z M232.4538879,124.8011551
	c0-24.9131088,5.4273987-46.8004303,16.2863159-65.6578369c10.8547974-18.8574066,26.2854614-33.4282913,46.2837219-43.7126465
	C315.0222168,5.1463118,338.2818909,0,364.7988281,0c13.938446,0,27.9389038,1.8890477,41.9972229,5.6588759
	c14.0541687,3.7698283,27.5999146,9.1972237,40.6289978,16.2821865c2.2817383,0.917654,3.4267273,2.5173512,3.4267273,4.8032227
	c0,0.9135227-0.3430786,1.9427853-1.025116,3.0836544l-9.9454041,19.8866711
	c-0.9176636,2.0585251-2.5173645,3.0836525-4.7991028,3.0836525c-1.372345,0-2.4016113-0.2273483-3.0836487-0.6861763
	c-12.1155396-6.3987846-23.3175354-10.9663963-33.6018982-13.7110939
	c-10.2843628-2.7447014-21.4863892-4.1170502-33.5977783-4.1170502c-18.5184631,0-34.8626404,3.7739601-49.0325623,11.3177528
	s-25.1404724,18.1133614-32.9115906,31.7128487c-7.7711487,13.5994949-11.6567078,29.4311218-11.6567078,47.4866104
	s3.8855591,33.8871231,11.6567078,47.4866104c7.7711182,13.5994873,18.7416687,24.1732025,32.9115906,31.7128601
	c14.1699219,7.5437775,30.5140991,11.3136139,49.0325623,11.3136139c16.9104919,0,33.3663025-2.9720459,49.3674011-8.9161377
	v-29.8279419c0-3.8855743,1.9427795-5.8283539,5.8283386-5.8283539h26.0581055c3.8855896,0,5.8283691,1.9427795,5.8283691,5.8283539
	v42.8569946c0,5.2579193-2.1742554,9.0318756-6.5145264,11.3136139
	c-22.3999023,12.5743713-49.2557983,18.8574066-80.567688,18.8574066c-26.5169373,0-49.7766113-5.1421661-69.7749023-15.4265289
	c-19.9982605-10.2843628-35.4289246-24.859375-46.2837219-43.7167816
	C237.8812866,171.5974579,232.4538879,149.7142639,232.4538879,124.8011551z M369.2548218,135.4286041
	c0,3.8855591,1.9428101,5.8283539,5.8283691,5.8283539h70.9694824c3.8855896,0,5.8283691-1.9427948,5.8283691-5.8283539v-22.627243
	c0-3.8855667-1.9427795-5.8283463-5.8283691-5.8283463h-70.9694824c-3.8855591,0-5.8283691,1.9427795-5.8283691,5.8283463
	V135.4286041z M499.8805847,10.6274433c0-3.8855686,1.9428101-5.8283529,5.8283691-5.8283529h26.058136
	c3.8855591,0,5.8283081,1.9427843,5.8283081,5.8283529v96.3455734h89.1409912c3.8855591,0,5.8283691,1.9427795,5.8283691,5.8283463
	v22.627243c0,3.8855591-1.9428101,5.8283539-5.8283691,5.8283539h-89.1409912v97.7137756
	c0,3.8855743-1.942749,5.8283539-5.8283081,5.8283539h-26.058136c-3.8855591,0-5.8283691-1.9427795-5.8283691-5.8283539V10.6274433z
	 M672.576416,10.6274433c0-3.8855686,1.9428101-5.8283529,5.8283691-5.8283529h25.4766846
	c3.8855591,0,5.8283691,1.9427843,5.8283691,5.8283529v228.3432922c0,3.8855743-1.9428101,5.8283539-5.8283691,5.8283539
	h-25.4766846c-3.8855591,0-5.8283691-1.9427795-5.8283691-5.8283539V10.6274433z M758.7649536,32.7991142v-28h3.6751709
	L772.59021,25.8575974l10.0916138-21.0584831h3.7141724v27.980484h-3.8502808V13.6268673l-9.041626,19.1722469h-1.847229
	l-9.0611572-19.1722469v19.1722469H758.7649536z M731.7098389,4.7991328v3.9999995h9v24h4v-24h9V4.7991328H731.7098389z"/>
</svg>
