<svg xmlns="http://www.w3.org/2000/svg" viewBox="0 0 266.84 277.99"><defs><style>.cls-1{opacity:0.25;}.cls-2,.cls-3,.cls-4{fill:none;}.cls-2,.cls-3{stroke:#578084;stroke-width:0.5px;}.cls-2{stroke-linejoin:bevel;}.cls-3,.cls-4{stroke-miterlimit:10;}.cls-4{stroke:#00e2e2;stroke-linecap:round;stroke-width:1.98px;}</style></defs><g id="Layer_1" data-name="Layer 1" class="cls-1"><line class="cls-2" x1="178" y1="241.81" x2="178" y2="0.18"/><line class="cls-2" x1="75.11" y1="277.81" x2="178" y2="176.08"/><line class="cls-2" x1="237.54" y1="89.12" x2="88.75" y2="237.92"/><polyline class="cls-2" points="148.6 178.07 148.6 0.18 237.54 89.12"/><polyline class="cls-2" points="148.87 30.1 207.9 89.12 89.62 207.39"/><line class="cls-2" x1="178.25" y1="89.12" x2="29.61" y2="237.76"/><polyline class="cls-2" points="89.3 178.07 89.3 0.18 178.25 89.12"/><line class="cls-2" x1="148.6" y1="89.12" x2="59.65" y2="178.07"/><polyline class="cls-2" points="30 0.18 118.95 89.12 30 178.07"/><line class="cls-2" x1="30" y1="237.22" x2="30" y2="0.18"/><polygon class="cls-2" points="0.35 0.18 89.3 89.12 0.35 178.07 0.35 0.18"/><line class="cls-3" x1="148.6" y1="237.38" x2="148.6" y2="59.49"/><polygon class="cls-3" points="89.3 59.49 0.35 148.44 89.3 237.38 89.3 59.49"/></g><g id="Highlight_Arrow" data-name="Highlight Arrow"><polyline class="cls-4" points="178.45 1.13 265.44 88.12 178.58 174.98"/></g></svg>